<?xml version="1.0" encoding="UTF-8" standalone="no"?>
<!-- Created with Inkscape (http://www.inkscape.org/) -->

<svg
   width="210mm"
   height="297mm"
   viewBox="0 0 210 297"
   version="1.1"
   id="svg1"
   inkscape:version="1.3.2 (091e20e, 2023-11-25, custom)"
   sodipodi:docname="profile12.svg"
   xmlns:inkscape="http://www.inkscape.org/namespaces/inkscape"
   xmlns:sodipodi="http://sodipodi.sourceforge.net/DTD/sodipodi-0.dtd"
   xmlns="http://www.w3.org/2000/svg"
   xmlns:svg="http://www.w3.org/2000/svg">
  <sodipodi:namedview
     id="namedview1"
     pagecolor="#ffffff"
     bordercolor="#000000"
     borderopacity="0.25"
     inkscape:showpageshadow="2"
     inkscape:pageopacity="0.0"
     inkscape:pagecheckerboard="0"
     inkscape:deskcolor="#d1d1d1"
     inkscape:document-units="mm"
     inkscape:zoom="2.9611952"
     inkscape:cx="557.88285"
     inkscape:cy="43.056939"
     inkscape:window-width="1920"
     inkscape:window-height="1027"
     inkscape:window-x="-8"
     inkscape:window-y="-8"
     inkscape:window-maximized="1"
     inkscape:current-layer="layer1" />
  <defs
     id="defs1">
    <clipPath
       clipPathUnits="userSpaceOnUse"
       id="clipPath4768">
      <path
         d="M 21.219999,819.5 H 502.89999 V 980.06 H 21.219999"
         id="path4768" />
    </clipPath>
    <clipPath
       clipPathUnits="userSpaceOnUse"
       id="clipPath4770">
      <path
         d="M 21.219999,819.5 H 502.89999 V 980.06 H 21.219999"
         id="path4770" />
    </clipPath>
    <clipPath
       clipPathUnits="userSpaceOnUse"
       id="clipPath4772">
      <path
         d="M 21.219999,819.5 H 502.89999 V 980.06 H 21.219999"
         id="path4772" />
    </clipPath>
    <clipPath
       clipPathUnits="userSpaceOnUse"
       id="clipPath4774">
      <path
         d="M 21.219999,819.5 H 502.89999 V 980.06 H 21.219999"
         id="path4774" />
    </clipPath>
    <clipPath
       clipPathUnits="userSpaceOnUse"
       id="clipPath4776">
      <path
         d="M 21.219999,819.5 H 502.89999 V 980.06 H 21.219999"
         id="path4776" />
    </clipPath>
    <clipPath
       clipPathUnits="userSpaceOnUse"
       id="clipPath4778">
      <path
         d="M 21.219999,819.5 H 502.89999 V 980.06 H 21.219999"
         id="path4778" />
    </clipPath>
    <clipPath
       clipPathUnits="userSpaceOnUse"
       id="clipPath4780">
      <path
         d="M 21.219999,819.5 H 502.89999 V 980.06 H 21.219999"
         id="path4780" />
    </clipPath>
    <clipPath
       clipPathUnits="userSpaceOnUse"
       id="clipPath4782">
      <path
         d="M 21.219999,819.5 H 502.89999 V 980.06 H 21.219999"
         id="path4782" />
    </clipPath>
    <clipPath
       clipPathUnits="userSpaceOnUse"
       id="clipPath4784">
      <path
         d="M 21.219999,819.5 H 502.89999 V 980.06 H 21.219999"
         id="path4784" />
    </clipPath>
    <clipPath
       clipPathUnits="userSpaceOnUse"
       id="clipPath4786">
      <path
         d="M 21.219999,819.5 H 502.89999 V 980.06 H 21.219999"
         id="path4786" />
    </clipPath>
    <clipPath
       clipPathUnits="userSpaceOnUse"
       id="clipPath4788">
      <path
         d="M 21.219999,819.5 H 502.89999 V 980.06 H 21.219999"
         id="path4788" />
    </clipPath>
    <clipPath
       clipPathUnits="userSpaceOnUse"
       id="clipPath4790">
      <path
         d="M 21.219999,819.5 H 502.89999 V 980.06 H 21.219999"
         id="path4790" />
    </clipPath>
    <clipPath
       clipPathUnits="userSpaceOnUse"
       id="clipPath4792">
      <path
         d="M 21.219999,819.5 H 502.89999 V 980.06 H 21.219999"
         id="path4792" />
    </clipPath>
    <clipPath
       clipPathUnits="userSpaceOnUse"
       id="clipPath4794">
      <path
         d="M 21.219999,819.5 H 502.89999 V 980.06 H 21.219999"
         id="path4794" />
    </clipPath>
    <clipPath
       clipPathUnits="userSpaceOnUse"
       id="clipPath4796">
      <path
         d="M 21.219999,819.5 H 502.89999 V 980.06 H 21.219999"
         id="path4796" />
    </clipPath>
    <clipPath
       clipPathUnits="userSpaceOnUse"
       id="clipPath4798">
      <path
         d="M 21.219999,819.5 H 502.89999 V 980.06 H 21.219999"
         id="path4798" />
    </clipPath>
    <clipPath
       clipPathUnits="userSpaceOnUse"
       id="clipPath4800">
      <path
         d="M 21.219999,819.5 H 502.89999 V 980.06 H 21.219999"
         id="path4800" />
    </clipPath>
    <clipPath
       clipPathUnits="userSpaceOnUse"
       id="clipPath4802">
      <path
         d="M 21.219999,819.5 H 502.89999 V 980.06 H 21.219999"
         id="path4802" />
    </clipPath>
    <clipPath
       clipPathUnits="userSpaceOnUse"
       id="clipPath4804">
      <path
         d="M 21.219999,819.5 H 502.89999 V 980.06 H 21.219999"
         id="path4804" />
    </clipPath>
    <clipPath
       clipPathUnits="userSpaceOnUse"
       id="clipPath4806">
      <path
         d="M 21.219999,819.5 H 502.89999 V 980.06 H 21.219999"
         id="path4806" />
    </clipPath>
    <clipPath
       clipPathUnits="userSpaceOnUse"
       id="clipPath4808">
      <path
         d="M 21.219999,819.5 H 502.89999 V 980.06 H 21.219999"
         id="path4808" />
    </clipPath>
    <clipPath
       clipPathUnits="userSpaceOnUse"
       id="clipPath4810">
      <path
         d="M 21.219999,819.5 H 502.89999 V 980.06 H 21.219999"
         id="path4810" />
    </clipPath>
    <clipPath
       clipPathUnits="userSpaceOnUse"
       id="clipPath4812">
      <path
         d="M 21.219999,819.5 H 502.89999 V 980.06 H 21.219999"
         id="path4812" />
    </clipPath>
    <clipPath
       clipPathUnits="userSpaceOnUse"
       id="clipPath4814">
      <path
         d="M 21.219999,819.5 H 502.89999 V 980.06 H 21.219999"
         id="path4814" />
    </clipPath>
    <clipPath
       clipPathUnits="userSpaceOnUse"
       id="clipPath4816">
      <path
         d="M 21.219999,819.5 H 502.89999 V 980.06 H 21.219999"
         id="path4816" />
    </clipPath>
    <clipPath
       clipPathUnits="userSpaceOnUse"
       id="clipPath4818">
      <path
         d="M 21.219999,819.5 H 502.89999 V 980.06 H 21.219999"
         id="path4818" />
    </clipPath>
    <clipPath
       clipPathUnits="userSpaceOnUse"
       id="clipPath4820">
      <path
         d="M 21.219999,819.5 H 502.89999 V 980.06 H 21.219999"
         id="path4820" />
    </clipPath>
    <clipPath
       clipPathUnits="userSpaceOnUse"
       id="clipPath4822">
      <path
         d="M 21.219999,819.5 H 502.89999 V 980.06 H 21.219999"
         id="path4822" />
    </clipPath>
    <clipPath
       clipPathUnits="userSpaceOnUse"
       id="clipPath4824">
      <path
         d="M 21.219999,819.5 H 502.89999 V 980.06 H 21.219999"
         id="path4824" />
    </clipPath>
    <clipPath
       clipPathUnits="userSpaceOnUse"
       id="clipPath4826">
      <path
         d="M 21.219999,819.5 H 502.89999 V 980.06 H 21.219999"
         id="path4826" />
    </clipPath>
    <clipPath
       clipPathUnits="userSpaceOnUse"
       id="clipPath4828">
      <path
         d="M 21.219999,819.5 H 502.89999 V 980.06 H 21.219999"
         id="path4828" />
    </clipPath>
    <clipPath
       clipPathUnits="userSpaceOnUse"
       id="clipPath4830">
      <path
         d="M 21.219999,819.5 H 502.89999 V 980.06 H 21.219999"
         id="path4830" />
    </clipPath>
    <clipPath
       clipPathUnits="userSpaceOnUse"
       id="clipPath4832">
      <path
         d="M 21.219999,819.5 H 502.89999 V 980.06 H 21.219999"
         id="path4832" />
    </clipPath>
    <clipPath
       clipPathUnits="userSpaceOnUse"
       id="clipPath4834">
      <path
         d="M 21.219999,819.5 H 502.89999 V 980.06 H 21.219999"
         id="path4834" />
    </clipPath>
    <clipPath
       clipPathUnits="userSpaceOnUse"
       id="clipPath4836">
      <path
         d="M 21.219999,819.5 H 502.89999 V 980.06 H 21.219999"
         id="path4836" />
    </clipPath>
    <clipPath
       clipPathUnits="userSpaceOnUse"
       id="clipPath4838">
      <path
         d="M 21.219999,819.5 H 502.89999 V 980.06 H 21.219999"
         id="path4838" />
    </clipPath>
    <clipPath
       clipPathUnits="userSpaceOnUse"
       id="clipPath4840">
      <path
         d="M 21.219999,819.5 H 502.89999 V 980.06 H 21.219999"
         id="path4840" />
    </clipPath>
    <clipPath
       clipPathUnits="userSpaceOnUse"
       id="clipPath4842">
      <path
         d="M 21.219999,819.5 H 502.89999 V 980.06 H 21.219999"
         id="path4842" />
    </clipPath>
    <clipPath
       clipPathUnits="userSpaceOnUse"
       id="clipPath4844">
      <path
         d="M 21.219999,819.5 H 502.89999 V 980.06 H 21.219999"
         id="path4844" />
    </clipPath>
    <clipPath
       clipPathUnits="userSpaceOnUse"
       id="clipPath4846">
      <path
         d="M 21.219999,819.5 H 502.89999 V 980.06 H 21.219999"
         id="path4846" />
    </clipPath>
    <clipPath
       clipPathUnits="userSpaceOnUse"
       id="clipPath4848">
      <path
         d="M 21.219999,819.5 H 502.89999 V 980.06 H 21.219999"
         id="path4848" />
    </clipPath>
    <clipPath
       clipPathUnits="userSpaceOnUse"
       id="clipPath4850">
      <path
         d="M 21.219999,819.5 H 502.89999 V 980.06 H 21.219999"
         id="path4850" />
    </clipPath>
    <clipPath
       clipPathUnits="userSpaceOnUse"
       id="clipPath4852">
      <path
         d="M 21.219999,819.5 H 502.89999 V 980.06 H 21.219999"
         id="path4852" />
    </clipPath>
    <clipPath
       clipPathUnits="userSpaceOnUse"
       id="clipPath4854">
      <path
         d="M 21.219999,819.5 H 502.89999 V 980.06 H 21.219999"
         id="path4854" />
    </clipPath>
    <clipPath
       clipPathUnits="userSpaceOnUse"
       id="clipPath4856">
      <path
         d="M 21.219999,819.5 H 502.89999 V 980.06 H 21.219999"
         id="path4856" />
    </clipPath>
    <clipPath
       clipPathUnits="userSpaceOnUse"
       id="clipPath4858">
      <path
         d="M 21.219999,819.5 H 502.89999 V 980.06 H 21.219999"
         id="path4858" />
    </clipPath>
    <clipPath
       clipPathUnits="userSpaceOnUse"
       id="clipPath4860">
      <path
         d="M 21.219999,819.5 H 502.89999 V 980.06 H 21.219999"
         id="path4860" />
    </clipPath>
    <clipPath
       clipPathUnits="userSpaceOnUse"
       id="clipPath4862">
      <path
         d="M 21.219999,819.5 H 502.89999 V 980.06 H 21.219999"
         id="path4862" />
    </clipPath>
    <clipPath
       clipPathUnits="userSpaceOnUse"
       id="clipPath4864">
      <path
         d="M 21.219999,819.5 H 502.89999 V 980.06 H 21.219999"
         id="path4864" />
    </clipPath>
    <clipPath
       clipPathUnits="userSpaceOnUse"
       id="clipPath4866">
      <path
         d="M 21.219999,819.5 H 502.89999 V 980.06 H 21.219999"
         id="path4866" />
    </clipPath>
    <clipPath
       clipPathUnits="userSpaceOnUse"
       id="clipPath4868">
      <path
         d="M 21.219999,819.5 H 502.89999 V 980.06 H 21.219999"
         id="path4868" />
    </clipPath>
    <clipPath
       clipPathUnits="userSpaceOnUse"
       id="clipPath4870">
      <path
         d="M 21.219999,819.5 H 502.89999 V 980.06 H 21.219999"
         id="path4870" />
    </clipPath>
    <clipPath
       clipPathUnits="userSpaceOnUse"
       id="clipPath4872">
      <path
         d="M 21.219999,819.5 H 502.89999 V 980.06 H 21.219999"
         id="path4872" />
    </clipPath>
    <clipPath
       clipPathUnits="userSpaceOnUse"
       id="clipPath4874">
      <path
         d="M 21.219999,819.5 H 502.89999 V 980.06 H 21.219999"
         id="path4874" />
    </clipPath>
    <clipPath
       clipPathUnits="userSpaceOnUse"
       id="clipPath4876">
      <path
         d="M 21.219999,819.5 H 502.89999 V 980.06 H 21.219999"
         id="path4876" />
    </clipPath>
    <clipPath
       clipPathUnits="userSpaceOnUse"
       id="clipPath4878">
      <path
         d="M 21.219999,819.5 H 502.89999 V 980.06 H 21.219999"
         id="path4878" />
    </clipPath>
    <clipPath
       clipPathUnits="userSpaceOnUse"
       id="clipPath4880">
      <path
         d="M 21.219999,819.5 H 502.89999 V 980.06 H 21.219999"
         id="path4880" />
    </clipPath>
    <clipPath
       clipPathUnits="userSpaceOnUse"
       id="clipPath4882">
      <path
         d="M 21.219999,819.5 H 502.89999 V 980.06 H 21.219999"
         id="path4882" />
    </clipPath>
    <clipPath
       clipPathUnits="userSpaceOnUse"
       id="clipPath4884">
      <path
         d="M 21.219999,819.5 H 502.89999 V 980.06 H 21.219999"
         id="path4884" />
    </clipPath>
    <clipPath
       clipPathUnits="userSpaceOnUse"
       id="clipPath4886">
      <path
         d="M 21.219999,819.5 H 502.89999 V 980.06 H 21.219999"
         id="path4886" />
    </clipPath>
    <clipPath
       clipPathUnits="userSpaceOnUse"
       id="clipPath4888">
      <path
         d="M 21.219999,819.5 H 502.89999 V 980.06 H 21.219999"
         id="path4888" />
    </clipPath>
    <clipPath
       clipPathUnits="userSpaceOnUse"
       id="clipPath4890">
      <path
         d="M 21.219999,819.5 H 502.89999 V 980.06 H 21.219999"
         id="path4890" />
    </clipPath>
    <clipPath
       clipPathUnits="userSpaceOnUse"
       id="clipPath4892">
      <path
         d="M 21.219999,819.5 H 502.89999 V 980.06 H 21.219999"
         id="path4892" />
    </clipPath>
    <clipPath
       clipPathUnits="userSpaceOnUse"
       id="clipPath4894">
      <path
         d="M 21.219999,819.5 H 502.89999 V 980.06 H 21.219999"
         id="path4894" />
    </clipPath>
    <clipPath
       clipPathUnits="userSpaceOnUse"
       id="clipPath4896">
      <path
         d="M 21.219999,819.5 H 502.89999 V 980.06 H 21.219999"
         id="path4896" />
    </clipPath>
    <clipPath
       clipPathUnits="userSpaceOnUse"
       id="clipPath4898">
      <path
         d="M 21.219999,819.5 H 502.89999 V 980.06 H 21.219999"
         id="path4898" />
    </clipPath>
    <clipPath
       clipPathUnits="userSpaceOnUse"
       id="clipPath4900">
      <path
         d="M 21.219999,819.5 H 502.89999 V 980.06 H 21.219999"
         id="path4900" />
    </clipPath>
    <clipPath
       clipPathUnits="userSpaceOnUse"
       id="clipPath4902">
      <path
         d="M 21.219999,819.5 H 502.89999 V 980.06 H 21.219999"
         id="path4902" />
    </clipPath>
    <clipPath
       clipPathUnits="userSpaceOnUse"
       id="clipPath4904">
      <path
         d="M 21.219999,819.5 H 502.89999 V 980.06 H 21.219999"
         id="path4904" />
    </clipPath>
    <clipPath
       clipPathUnits="userSpaceOnUse"
       id="clipPath4906">
      <path
         d="M 21.219999,819.5 H 502.89999 V 980.06 H 21.219999"
         id="path4906" />
    </clipPath>
    <clipPath
       clipPathUnits="userSpaceOnUse"
       id="clipPath4908">
      <path
         d="M 21.219999,819.5 H 502.89999 V 980.06 H 21.219999"
         id="path4908" />
    </clipPath>
    <clipPath
       clipPathUnits="userSpaceOnUse"
       id="clipPath4910">
      <path
         d="M 21.219999,819.5 H 502.89999 V 980.06 H 21.219999"
         id="path4910" />
    </clipPath>
    <clipPath
       clipPathUnits="userSpaceOnUse"
       id="clipPath4912">
      <path
         d="M 21.219999,819.5 H 502.89999 V 980.06 H 21.219999"
         id="path4912" />
    </clipPath>
    <clipPath
       clipPathUnits="userSpaceOnUse"
       id="clipPath4914">
      <path
         d="M 21.219999,819.5 H 502.89999 V 980.06 H 21.219999"
         id="path4914" />
    </clipPath>
    <clipPath
       clipPathUnits="userSpaceOnUse"
       id="clipPath4916">
      <path
         d="M 21.219999,819.5 H 502.89999 V 980.06 H 21.219999"
         id="path4916" />
    </clipPath>
    <clipPath
       clipPathUnits="userSpaceOnUse"
       id="clipPath4918">
      <path
         d="M 21.219999,819.5 H 502.89999 V 980.06 H 21.219999"
         id="path4918" />
    </clipPath>
    <clipPath
       clipPathUnits="userSpaceOnUse"
       id="clipPath4920">
      <path
         d="M 21.219999,819.5 H 502.89999 V 980.06 H 21.219999"
         id="path4920" />
    </clipPath>
    <clipPath
       clipPathUnits="userSpaceOnUse"
       id="clipPath4922">
      <path
         d="M 21.219999,819.5 H 502.89999 V 980.06 H 21.219999"
         id="path4922" />
    </clipPath>
    <clipPath
       clipPathUnits="userSpaceOnUse"
       id="clipPath4924">
      <path
         d="M 21.219999,819.5 H 502.89999 V 980.06 H 21.219999"
         id="path4924" />
    </clipPath>
    <clipPath
       clipPathUnits="userSpaceOnUse"
       id="clipPath4926">
      <path
         d="M 21.219999,819.5 H 502.89999 V 980.06 H 21.219999"
         id="path4926" />
    </clipPath>
    <clipPath
       clipPathUnits="userSpaceOnUse"
       id="clipPath4928">
      <path
         d="M 21.219999,819.5 H 502.89999 V 980.06 H 21.219999"
         id="path4928" />
    </clipPath>
    <clipPath
       clipPathUnits="userSpaceOnUse"
       id="clipPath4930">
      <path
         d="M 21.219999,819.5 H 502.89999 V 980.06 H 21.219999"
         id="path4930" />
    </clipPath>
    <clipPath
       clipPathUnits="userSpaceOnUse"
       id="clipPath4932">
      <path
         d="M 21.219999,819.5 H 502.89999 V 980.06 H 21.219999"
         id="path4932" />
    </clipPath>
    <clipPath
       clipPathUnits="userSpaceOnUse"
       id="clipPath4934">
      <path
         d="M 21.219999,819.5 H 502.89999 V 980.06 H 21.219999"
         id="path4934" />
    </clipPath>
    <clipPath
       clipPathUnits="userSpaceOnUse"
       id="clipPath4936">
      <path
         d="M 21.219999,819.5 H 502.89999 V 980.06 H 21.219999"
         id="path4936" />
    </clipPath>
    <clipPath
       clipPathUnits="userSpaceOnUse"
       id="clipPath4938">
      <path
         d="M 21.219999,819.5 H 502.89999 V 980.06 H 21.219999"
         id="path4938" />
    </clipPath>
    <clipPath
       clipPathUnits="userSpaceOnUse"
       id="clipPath4940">
      <path
         d="M 21.219999,819.5 H 502.89999 V 980.06 H 21.219999"
         id="path4940" />
    </clipPath>
    <clipPath
       clipPathUnits="userSpaceOnUse"
       id="clipPath4942">
      <path
         d="M 21.219999,819.5 H 502.89999 V 980.06 H 21.219999"
         id="path4942" />
    </clipPath>
    <clipPath
       clipPathUnits="userSpaceOnUse"
       id="clipPath4944">
      <path
         d="M 21.219999,819.5 H 502.89999 V 980.06 H 21.219999"
         id="path4944" />
    </clipPath>
    <clipPath
       clipPathUnits="userSpaceOnUse"
       id="clipPath4946">
      <path
         d="M 21.219999,819.5 H 502.89999 V 980.06 H 21.219999"
         id="path4946" />
    </clipPath>
    <clipPath
       clipPathUnits="userSpaceOnUse"
       id="clipPath4948">
      <path
         d="M 21.219999,819.5 H 502.89999 V 980.06 H 21.219999"
         id="path4948" />
    </clipPath>
    <clipPath
       clipPathUnits="userSpaceOnUse"
       id="clipPath4950">
      <path
         d="M 21.219999,819.5 H 502.89999 V 980.06 H 21.219999"
         id="path4950" />
    </clipPath>
    <clipPath
       clipPathUnits="userSpaceOnUse"
       id="clipPath4952">
      <path
         d="M 21.219999,819.5 H 502.89999 V 980.06 H 21.219999"
         id="path4952" />
    </clipPath>
    <clipPath
       clipPathUnits="userSpaceOnUse"
       id="clipPath4954">
      <path
         d="M 21.219999,819.5 H 502.89999 V 980.06 H 21.219999"
         id="path4954" />
    </clipPath>
    <clipPath
       clipPathUnits="userSpaceOnUse"
       id="clipPath4956">
      <path
         d="M 21.219999,819.5 H 502.89999 V 980.06 H 21.219999"
         id="path4956" />
    </clipPath>
    <clipPath
       clipPathUnits="userSpaceOnUse"
       id="clipPath4958">
      <path
         d="M 21.219999,819.5 H 502.89999 V 980.06 H 21.219999"
         id="path4958" />
    </clipPath>
    <clipPath
       clipPathUnits="userSpaceOnUse"
       id="clipPath4960">
      <path
         d="M 21.219999,819.5 H 502.89999 V 980.06 H 21.219999"
         id="path4960" />
    </clipPath>
    <clipPath
       clipPathUnits="userSpaceOnUse"
       id="clipPath4962">
      <path
         d="M 21.219999,819.5 H 502.89999 V 980.06 H 21.219999"
         id="path4962" />
    </clipPath>
    <clipPath
       clipPathUnits="userSpaceOnUse"
       id="clipPath4964">
      <path
         d="M 21.219999,819.5 H 502.89999 V 980.06 H 21.219999"
         id="path4964" />
    </clipPath>
    <clipPath
       clipPathUnits="userSpaceOnUse"
       id="clipPath4966">
      <path
         d="M 21.219999,819.5 H 502.89999 V 980.06 H 21.219999"
         id="path4966" />
    </clipPath>
    <clipPath
       clipPathUnits="userSpaceOnUse"
       id="clipPath4968">
      <path
         d="M 21.219999,819.5 H 502.89999 V 980.06 H 21.219999"
         id="path4968" />
    </clipPath>
    <clipPath
       clipPathUnits="userSpaceOnUse"
       id="clipPath4970">
      <path
         d="M 21.219999,819.5 H 502.89999 V 980.06 H 21.219999"
         id="path4970" />
    </clipPath>
    <clipPath
       clipPathUnits="userSpaceOnUse"
       id="clipPath4972">
      <path
         d="M 21.219999,819.5 H 502.89999 V 980.06 H 21.219999"
         id="path4972" />
    </clipPath>
    <clipPath
       clipPathUnits="userSpaceOnUse"
       id="clipPath4974">
      <path
         d="M 21.219999,819.5 H 502.89999 V 980.06 H 21.219999"
         id="path4974" />
    </clipPath>
    <clipPath
       clipPathUnits="userSpaceOnUse"
       id="clipPath4976">
      <path
         d="M 21.219999,819.5 H 502.89999 V 980.06 H 21.219999"
         id="path4976" />
    </clipPath>
    <clipPath
       clipPathUnits="userSpaceOnUse"
       id="clipPath4978">
      <path
         d="M 21.219999,819.5 H 502.89999 V 980.06 H 21.219999"
         id="path4978" />
    </clipPath>
    <clipPath
       clipPathUnits="userSpaceOnUse"
       id="clipPath4980">
      <path
         d="M 21.219999,819.5 H 502.89999 V 980.06 H 21.219999"
         id="path4980" />
    </clipPath>
    <clipPath
       clipPathUnits="userSpaceOnUse"
       id="clipPath4982">
      <path
         d="M 21.219999,819.5 H 502.89999 V 980.06 H 21.219999"
         id="path4982" />
    </clipPath>
    <clipPath
       clipPathUnits="userSpaceOnUse"
       id="clipPath4984">
      <path
         d="M 21.219999,819.5 H 502.89999 V 980.06 H 21.219999"
         id="path4984" />
    </clipPath>
    <clipPath
       clipPathUnits="userSpaceOnUse"
       id="clipPath4986">
      <path
         d="M 21.219999,819.5 H 502.89999 V 980.06 H 21.219999"
         id="path4986" />
    </clipPath>
    <clipPath
       clipPathUnits="userSpaceOnUse"
       id="clipPath4988">
      <path
         d="M 21.219999,819.5 H 502.89999 V 980.06 H 21.219999"
         id="path4988" />
    </clipPath>
    <clipPath
       clipPathUnits="userSpaceOnUse"
       id="clipPath4990">
      <path
         d="M 21.219999,819.5 H 502.89999 V 980.06 H 21.219999"
         id="path4990" />
    </clipPath>
    <clipPath
       clipPathUnits="userSpaceOnUse"
       id="clipPath4992">
      <path
         d="M 21.219999,819.5 H 502.89999 V 980.06 H 21.219999"
         id="path4992" />
    </clipPath>
    <clipPath
       clipPathUnits="userSpaceOnUse"
       id="clipPath4994">
      <path
         d="M 21.219999,819.5 H 502.89999 V 980.06 H 21.219999"
         id="path4994" />
    </clipPath>
    <clipPath
       clipPathUnits="userSpaceOnUse"
       id="clipPath4996">
      <path
         d="M 21.219999,819.5 H 502.89999 V 980.06 H 21.219999"
         id="path4996" />
    </clipPath>
    <clipPath
       clipPathUnits="userSpaceOnUse"
       id="clipPath4998">
      <path
         d="M 21.219999,819.5 H 502.89999 V 980.06 H 21.219999"
         id="path4998" />
    </clipPath>
    <clipPath
       clipPathUnits="userSpaceOnUse"
       id="clipPath5000">
      <path
         d="M 21.219999,819.5 H 502.89999 V 980.06 H 21.219999"
         id="path5000" />
    </clipPath>
    <clipPath
       clipPathUnits="userSpaceOnUse"
       id="clipPath5002">
      <path
         d="M 21.219999,819.5 H 502.89999 V 980.06 H 21.219999"
         id="path5002" />
    </clipPath>
    <clipPath
       clipPathUnits="userSpaceOnUse"
       id="clipPath5004">
      <path
         d="M 21.219999,819.5 H 502.89999 V 980.06 H 21.219999"
         id="path5004" />
    </clipPath>
    <clipPath
       clipPathUnits="userSpaceOnUse"
       id="clipPath5006">
      <path
         d="M 21.219999,819.5 H 502.89999 V 980.06 H 21.219999"
         id="path5006" />
    </clipPath>
    <clipPath
       clipPathUnits="userSpaceOnUse"
       id="clipPath5008">
      <path
         d="M 21.219999,819.5 H 502.89999 V 980.06 H 21.219999"
         id="path5008" />
    </clipPath>
    <clipPath
       clipPathUnits="userSpaceOnUse"
       id="clipPath5010">
      <path
         d="M 21.219999,819.5 H 502.89999 V 980.06 H 21.219999"
         id="path5010" />
    </clipPath>
    <clipPath
       clipPathUnits="userSpaceOnUse"
       id="clipPath5012">
      <path
         d="M 21.219999,819.5 H 502.89999 V 980.06 H 21.219999"
         id="path5012" />
    </clipPath>
    <clipPath
       clipPathUnits="userSpaceOnUse"
       id="clipPath5014">
      <path
         d="M 21.219999,819.5 H 502.89999 V 980.06 H 21.219999"
         id="path5014" />
    </clipPath>
    <clipPath
       clipPathUnits="userSpaceOnUse"
       id="clipPath5016">
      <path
         d="M 21.219999,819.5 H 502.89999 V 980.06 H 21.219999"
         id="path5016" />
    </clipPath>
    <clipPath
       clipPathUnits="userSpaceOnUse"
       id="clipPath5018">
      <path
         d="M 21.219999,819.5 H 502.89999 V 980.06 H 21.219999"
         id="path5018" />
    </clipPath>
    <clipPath
       clipPathUnits="userSpaceOnUse"
       id="clipPath5020">
      <path
         d="M 21.219999,819.5 H 502.89999 V 980.06 H 21.219999"
         id="path5020" />
    </clipPath>
    <clipPath
       clipPathUnits="userSpaceOnUse"
       id="clipPath5022">
      <path
         d="M 21.219999,819.5 H 502.89999 V 980.06 H 21.219999"
         id="path5022" />
    </clipPath>
  </defs>
  <g
     inkscape:label="Ebene 1"
     inkscape:groupmode="layer"
     id="layer1">
    <path
       id="path4921"
       d="m 106.9,948.73999 -1.62,-0.53998 -1.44,-0.90002 -1.08,-1.26001 -0.54,-1.62 -0.36,-1.61999"
       style="fill:none;stroke:#000000;stroke-width:0.72;stroke-linecap:round;stroke-linejoin:bevel;stroke-miterlimit:10;stroke-dasharray:none;stroke-opacity:1"
       transform="matrix(0.3304075,0,0,-0.35287879,113.91527,344.33051)"
       clip-path="url(#clipPath4922)" />
    <path
       id="path4923"
       d="m 101.68,942.79999 v -9 h 147.96"
       style="fill:none;stroke:#000000;stroke-width:0.72;stroke-linecap:round;stroke-linejoin:round;stroke-miterlimit:10;stroke-dasharray:none;stroke-opacity:1"
       transform="matrix(0.3304075,0,0,-0.35287879,113.91527,344.33051)"
       clip-path="url(#clipPath4924)" />
    <path
       id="path4925"
       d="m 249.46001,942.79999 -0.36,1.61999 -0.54001,1.62 -1.08,1.26001 -1.44001,0.90002 -1.61999,0.53998"
       style="fill:none;stroke:#000000;stroke-width:0.72;stroke-linecap:round;stroke-linejoin:bevel;stroke-miterlimit:10;stroke-dasharray:none;stroke-opacity:1"
       transform="matrix(0.3304075,0,0,-0.35287879,113.91527,344.33051)"
       clip-path="url(#clipPath4926)" />
    <path
       id="path4927"
       d="m 249.64,942.79999 v -9"
       style="fill:none;stroke:#000000;stroke-width:0.72;stroke-linecap:round;stroke-linejoin:round;stroke-miterlimit:10;stroke-dasharray:none;stroke-opacity:1"
       transform="matrix(0.3304075,0,0,-0.35287879,113.91527,344.33051)"
       clip-path="url(#clipPath4928)" />
    <path
       id="path4929"
       d="m 244.42,948.91998 -22.86,1.62 -23.04,0.90002 -22.86,0.35999 -23.04,-0.35999 -22.86001,-0.90002 -22.85999,-1.62"
       style="fill:none;stroke:#000000;stroke-width:0.72;stroke-linecap:round;stroke-linejoin:round;stroke-miterlimit:10;stroke-dasharray:none;stroke-opacity:1"
       transform="matrix(0.3304075,0,0,-0.35287879,113.91527,344.33051)"
       clip-path="url(#clipPath4930)" />
    <path
       id="path5017"
       d="m 101.68,933.79999 5.4,-7.91999 5.94,-7.55999 6.66,-7.02002 7.02,-6.29999 7.55999,-5.94 8.10001,-5.21997 8.46001,-4.5 8.64,-3.96003 9.17999,-3.05999"
       style="fill:none;stroke:#000000;stroke-width:0.54;stroke-linecap:round;stroke-linejoin:round;stroke-miterlimit:10;stroke-dasharray:none;stroke-opacity:1"
       transform="matrix(0.3304075,0,0,-0.35287879,113.91527,344.33051)"
       clip-path="url(#clipPath5018)" />
    <path
       id="path5019"
       d="m 182.67999,882.32001 9.18001,3.05999 8.64,3.96003 8.46001,4.5 8.09999,5.21997 7.56,5.94 7.02,6.29999 6.66,7.02002 5.94001,7.55999 5.39999,7.91999"
       style="fill:none;stroke:#000000;stroke-width:0.54;stroke-linecap:round;stroke-linejoin:round;stroke-miterlimit:10;stroke-dasharray:none;stroke-opacity:1"
       transform="matrix(0.3304075,0,0,-0.35287879,113.91527,344.33051)"
       clip-path="url(#clipPath5020)" />
    <path
       id="path5021"
       d="m 168.64,882.5 3.42,-1.08002 3.6,-0.17999 3.59999,0.17999 3.42,1.08002"
       style="fill:none;stroke:#000000;stroke-width:0.54;stroke-linecap:round;stroke-linejoin:bevel;stroke-miterlimit:10;stroke-dasharray:none;stroke-opacity:1"
       transform="matrix(0.3304075,0,0,-0.35287879,113.91527,344.33051)"
       clip-path="url(#clipPath5022)" />
  </g>
</svg>
